# xmcd
#
# Track frame offsets:
#	150
#	14522
#	28063
#	48987
#	65556
#	79608
#	95837
#	105723
#	119533
#	133163
#	153405
#
# Disc length: 2210 seconds
#
# Revision: 1
# Processed by: cddbd v1.4PL0 Copyright (c) Steve Scherf et al.
# Submitted via: audiograbber 1.80
#
DISCID=9608a00b
DTITLE=Luca Olivieri - The Best Of American Traditional
DYEAR=1900
DGENRE=
TTITLE0=Red River Valley
TTITLE1=Rom Dooley
TTITLE2=I' Take You Home Again Kathleen
TTITLE3=Oh! Susanna
TTITLE4=East Virginia
TTITLE5=Amazing Grace
TTITLE6=Winter Wonderland
TTITLE7=My Bonnie
TTITLE8=Quadriglia Francese
TTITLE9=Danny Boy
TTITLE10=Down By The Riverside
EXTD=
EXTT0=
EXTT1=
EXTT2=
EXTT3=
EXTT4=
EXTT5=
EXTT6=
EXTT7=
EXTT8=
EXTT9=
EXTT10=
PLAYORDER=
